<svg width="156" height="25" viewBox="0 0 156 25" fill="none" xmlns="http://www.w3.org/2000/svg">
<path d="M10.7078 24.9199C9.64654 24.9258 8.58706 24.8325 7.54317 24.6412C6.61103 24.4683 5.69654 24.211 4.81097 23.8725C3.98025 23.5596 3.18033 23.1704 2.42149 22.7098C1.72058 22.2846 1.05054 21.8104 0.416384 21.2909C0.298551 21.2031 0.200959 21.0911 0.130221 20.9623C0.0594833 20.8335 0.0172534 20.6911 0.00639345 20.5445C-0.0244243 20.2543 0.0569388 19.9632 0.23381 19.731L2.69375 16.1852C2.86634 15.9499 3.12149 15.7886 3.40803 15.7336C3.48707 15.7171 3.56754 15.7085 3.64826 15.7079C3.84897 15.7071 4.04571 15.7638 4.2152 15.8713C5.27349 16.5727 6.40429 17.1579 7.58802 17.617C8.56079 18.0066 9.59602 18.2172 10.6437 18.2383C11.3282 18.2778 12.0122 18.1538 12.6392 17.8764C12.815 17.7976 12.963 17.6679 13.0641 17.504C13.1652 17.34 13.2147 17.1495 13.2062 16.9571C13.211 16.8795 13.1959 16.802 13.1623 16.7319C13.1286 16.6618 13.0776 16.6015 13.014 16.5567C12.7865 16.3974 12.5328 16.2792 12.2645 16.2076C11.8778 16.0936 11.4825 16.0111 11.0825 15.961C10.6021 15.8969 10.1216 15.8072 9.61555 15.7015L7.97558 15.3748C7.30333 15.2472 6.64082 15.0727 5.9929 14.8527C5.30033 14.6148 4.62682 14.3246 3.97818 13.9847C3.29798 13.6276 2.68029 13.1625 2.14923 12.6074C1.59672 12.0261 1.15686 11.3473 0.851999 10.6055C0.510843 9.73798 0.344304 8.81167 0.361932 7.87968C0.317847 6.54755 0.63789 5.22862 1.28761 4.06484C1.85499 3.09742 2.64164 2.27676 3.5842 1.66896C4.52247 1.0733 5.5628 0.656295 6.65272 0.43899C7.71257 0.21677 8.79212 0.101948 9.87499 0.0962632C11.5536 0.0731877 13.2233 0.345316 14.8077 0.900229C16.306 1.46444 17.71 2.25283 18.9717 3.23846C19.2037 3.42979 19.351 3.70482 19.3817 4.00399C19.4144 4.28995 19.3339 4.57736 19.1574 4.80475L16.6623 8.35373C16.491 8.58831 16.2367 8.7487 15.9512 8.80216C15.8796 8.81736 15.8066 8.82488 15.7334 8.82458C15.5111 8.82459 15.295 8.75143 15.1184 8.61638C14.2029 8.02301 13.2146 7.55038 12.178 7.21024C11.3695 6.94727 10.5264 6.80586 9.6764 6.79064C9.44579 6.79064 9.17673 6.79064 8.87244 6.80665C8.59857 6.81393 8.32654 6.85371 8.06207 6.92517C7.85694 6.97474 7.66753 7.07495 7.51114 7.21665C7.45182 7.279 7.40633 7.35316 7.37763 7.4343C7.34893 7.51543 7.33767 7.60171 7.34458 7.68749C7.34458 7.8989 7.62005 8.08467 7.84746 8.20319C8.32041 8.44643 8.81604 8.64276 9.32727 8.78934C9.86335 8.94949 10.4076 9.081 10.9576 9.18332C11.4861 9.27621 11.8224 9.33707 11.9698 9.35628C12.8424 9.53019 13.7043 9.7537 14.5514 10.0257C15.5047 10.324 16.4051 10.7704 17.2196 11.3486C18.0756 11.9629 18.7935 12.7495 19.3272 13.658C19.9335 14.7491 20.2303 15.9851 20.1856 17.2326C20.2132 18.4215 19.9735 19.6015 19.4841 20.6855C19.032 21.6368 18.3548 22.4636 17.5111 23.0942C16.6132 23.7473 15.5956 24.2175 14.5162 24.4779C13.27 24.7828 11.9907 24.9312 10.7078 24.9199Z" fill="#C1C1C1"/>
<path d="M34.2501 24.9199C32.5872 24.927 30.9407 24.5912 29.4135 23.9333C27.9406 23.2986 26.6024 22.3887 25.4705 21.2524C24.346 20.1106 23.4444 18.7691 22.812 17.2966C22.1589 15.7678 21.8223 14.1225 21.8223 12.46C21.8223 10.7975 22.1589 9.15224 22.812 7.62339C23.4444 6.15092 24.346 4.80938 25.4705 3.66762C26.6021 2.531 27.9404 1.62104 29.4135 0.986668C30.9428 0.335594 32.5879 0 34.2501 0C35.9123 0 37.5573 0.335594 39.0867 0.986668C42.0707 2.26229 44.4478 4.63943 45.7234 7.62339C46.3828 9.15016 46.7187 10.797 46.71 12.46C46.7187 14.123 46.3828 15.7698 45.7234 17.2966C44.447 20.2812 42.0687 22.6584 39.0835 23.9333C37.5574 24.5914 35.912 24.9272 34.2501 24.9199ZM34.2501 6.75857C33.5226 6.75632 32.8038 6.91607 32.1457 7.22621C31.4911 7.52903 30.8981 7.95039 30.3968 8.469C29.6301 9.27777 29.1125 10.2902 28.9057 11.3853C28.699 12.4804 28.8119 13.6118 29.2309 14.6445C29.5053 15.3187 29.9016 15.9365 30.4 16.467C30.896 16.9944 31.4886 17.4217 32.1457 17.7258C32.8035 18.0366 33.5225 18.1964 34.2501 18.1935C34.9782 18.1956 35.6979 18.037 36.3577 17.729C37.017 17.4193 37.6141 16.9916 38.1194 16.467C38.6252 15.9392 39.0272 15.3209 39.3045 14.6445C39.8682 13.2482 39.8682 11.6878 39.3045 10.2915C39.0338 9.61337 38.6322 8.99516 38.1226 8.4722C37.613 7.95442 37.0154 7.53144 36.3577 7.22301C35.6979 6.91502 34.9782 6.75644 34.2501 6.75857Z" fill="#C1C1C1"/>
<path d="M50.4255 24.5035C50.2779 24.5099 50.1307 24.4846 49.9937 24.4294C49.8566 24.3741 49.733 24.2902 49.6312 24.1832C49.5334 24.0809 49.4568 23.9604 49.4057 23.8285C49.3546 23.6966 49.33 23.5559 49.3333 23.4144V1.50557C49.3282 1.22273 49.4339 0.949097 49.628 0.743249C49.7305 0.637063 49.8542 0.55366 49.991 0.498471C50.1279 0.443283 50.2749 0.417548 50.4223 0.422944H55.2269C55.3702 0.422093 55.5122 0.449682 55.6447 0.50411C55.7772 0.558538 55.8976 0.638724 55.9989 0.74002C56.1002 0.841316 56.1804 0.961709 56.2348 1.09422C56.2892 1.22673 56.3168 1.36873 56.316 1.51198V17.5272C56.3125 17.6459 56.3563 17.7611 56.4377 17.8475C56.4794 17.8894 56.5295 17.9219 56.5847 17.9429C56.6399 17.9639 56.699 17.9729 56.758 17.9693H66.3992C66.5424 17.9684 66.6844 17.996 66.8169 18.0504C66.9494 18.1049 67.0698 18.185 67.1711 18.2863C67.2724 18.3876 67.3526 18.508 67.407 18.6405C67.4615 18.773 67.489 18.915 67.4882 19.0583V23.4144C67.489 23.5577 67.4615 23.6997 67.407 23.8322C67.3526 23.9647 67.2724 24.0851 67.1711 24.1864C67.0698 24.2877 66.9494 24.3679 66.8169 24.4223C66.6844 24.4767 66.5424 24.5043 66.3992 24.5035H50.4255Z" fill="#C1C1C1"/>
<path d="M79.7975 24.9199C78.1335 24.9274 76.4859 24.5916 74.9577 23.9333C73.4848 23.2986 72.1465 22.3887 71.0147 21.2524C69.8913 20.1103 68.9908 18.7688 68.3594 17.2966C67.7063 15.7678 67.3696 14.1225 67.3696 12.46C67.3696 10.7975 67.7063 9.15224 68.3594 7.62339C68.9918 6.15092 69.8934 4.80938 71.0179 3.66762C72.1485 2.53134 73.4857 1.62139 74.9577 0.986668C76.487 0.335594 78.1321 0 79.7943 0C81.4564 0 83.1015 0.335594 84.6309 0.986668C87.616 2.26161 89.9944 4.63884 91.2708 7.62339C91.929 9.15039 92.2638 10.7972 92.2541 12.46C92.2638 14.1228 91.929 15.7696 91.2708 17.2966C89.9952 20.2806 87.618 22.6577 84.6341 23.9333C83.107 24.5918 81.4604 24.9277 79.7975 24.9199ZM79.7975 6.75857C79.0699 6.756 78.351 6.91576 77.6931 7.22621C77.0384 7.52903 76.4455 7.95039 75.9442 8.469C75.1775 9.27777 74.6598 10.2902 74.4531 11.3853C74.2463 12.4804 74.3592 13.6118 74.7783 14.6445C75.0527 15.3187 75.449 15.9365 75.9474 16.467C76.4434 16.9944 77.036 17.4217 77.6931 17.7258C78.3509 18.0366 79.0699 18.1964 79.7975 18.1935C80.5256 18.1956 81.2453 18.037 81.9051 17.729C82.5644 17.4193 83.1614 16.9916 83.6667 16.467C84.1726 15.9392 84.5746 15.3209 84.8519 14.6445C85.4156 13.2482 85.4156 11.6878 84.8519 10.2915C84.5799 9.61402 84.1785 8.99604 83.67 8.4722C83.1598 7.95515 82.5623 7.53226 81.9051 7.22301C81.2453 6.91502 80.5256 6.75644 79.7975 6.75857Z" fill="#C1C1C1"/>
<path d="M100.262 24.5034C99.9734 24.5026 99.6972 24.3875 99.4937 24.1833C99.2901 23.9792 99.1758 23.7027 99.1758 23.4144V16.1114C99.1705 15.884 99.1371 15.6581 99.0765 15.4388C99.0272 15.2286 98.9474 15.0268 98.8395 14.8398C97.5583 12.6457 96.2451 10.4709 94.919 8.36966C93.5929 6.26846 92.254 4.06476 90.9248 1.82903C90.8512 1.70116 90.805 1.55941 90.789 1.41276C90.773 1.26611 90.7876 1.11774 90.8319 0.977017C90.8745 0.820389 90.969 0.682846 91.0999 0.586853C91.2308 0.49086 91.3904 0.442091 91.5526 0.448513H97.254C97.5419 0.454393 97.8234 0.534965 98.0708 0.682336C98.3271 0.822624 98.5407 1.02958 98.689 1.28131L102.613 8.13584C102.613 8.15826 102.674 8.23193 102.715 8.23193C102.757 8.23193 102.808 8.15826 102.827 8.12623L106.713 1.28131C106.86 1.0278 107.074 0.819511 107.331 0.679133C107.577 0.531887 107.857 0.451303 108.144 0.44531H113.91C114.054 0.436852 114.198 0.466786 114.327 0.532057C114.456 0.597329 114.565 0.695605 114.643 0.816864C114.81 1.07311 114.775 1.41263 114.541 1.82262L106.533 14.8046C106.427 15.009 106.343 15.2236 106.28 15.4452C106.21 15.6519 106.172 15.8678 106.165 16.0858V23.4144C106.166 23.558 106.139 23.7004 106.083 23.833C106.028 23.9657 105.947 24.0858 105.845 24.1863C105.745 24.2889 105.626 24.3702 105.495 24.4253C105.363 24.4803 105.222 24.508 105.079 24.5066L100.262 24.5034Z" fill="#C1C1C1"/>
<path d="M128.996 24.5035C128.697 24.503 128.405 24.4102 128.16 24.2376C127.928 24.0842 127.734 23.8778 127.597 23.6355L126.719 21.688C126.63 21.5414 126.51 21.4166 126.367 21.3229C126.237 21.2291 126.082 21.1766 125.921 21.1723H119.16C118.99 21.1731 118.824 21.2269 118.686 21.3261C118.546 21.4133 118.435 21.539 118.365 21.688L117.465 23.6098C117.349 23.8704 117.162 24.0926 116.924 24.2505C116.688 24.4176 116.406 24.5092 116.117 24.5131H110.608C110.455 24.5113 110.305 24.4831 110.162 24.4298C110.001 24.372 109.857 24.2752 109.743 24.148C109.627 24.0122 109.552 23.8469 109.525 23.6707C109.499 23.4494 109.543 23.2254 109.65 23.0301L118.939 1.36465C119.057 1.1038 119.247 0.881741 119.486 0.724044C119.731 0.551482 120.023 0.458638 120.322 0.458191H124.807C125.096 0.462139 125.378 0.553715 125.614 0.720841C125.851 0.879892 126.04 1.10165 126.158 1.36145L135.511 23.1422C135.573 23.284 135.6 23.4388 135.59 23.5933C135.579 23.7478 135.531 23.8974 135.45 24.0294C135.352 24.1928 135.21 24.3252 135.04 24.4113C134.87 24.4975 134.679 24.5338 134.49 24.5163L128.996 24.5035ZM120.934 14.8239C120.87 14.9648 120.899 15.0129 120.909 15.0289C120.918 15.0449 121.078 15.0865 121.117 15.0865H123.964C124.118 15.0865 124.153 15.0353 124.166 15.0161C124.179 14.9968 124.198 14.9712 124.134 14.8591V14.8399V14.8207C123.919 14.289 123.663 13.6644 123.365 12.9533C123.067 12.2422 122.795 11.5824 122.539 10.9674L120.934 14.8239Z" fill="#C1C1C1"/>
<path d="M138.058 24.5035C137.91 24.5099 137.763 24.4846 137.626 24.4294C137.489 24.3741 137.366 24.2902 137.264 24.1832C137.069 23.9777 136.963 23.7038 136.969 23.4209V1.50557C136.964 1.22273 137.07 0.949097 137.264 0.743249C137.366 0.637063 137.49 0.55366 137.627 0.498471C137.764 0.443283 137.911 0.417548 138.058 0.422944H142.863C143.006 0.422093 143.148 0.449682 143.28 0.50411C143.413 0.558538 143.533 0.638724 143.635 0.74002C143.736 0.841316 143.816 0.961709 143.87 1.09422C143.925 1.22673 143.952 1.36873 143.952 1.51198V17.5272C143.948 17.6459 143.992 17.7611 144.073 17.8475C144.115 17.8894 144.165 17.9219 144.22 17.9429C144.276 17.9639 144.335 17.9729 144.394 17.9693H154.035C154.178 17.9684 154.32 17.996 154.453 18.0504C154.585 18.1049 154.705 18.185 154.807 18.2863C154.908 18.3876 154.988 18.508 155.043 18.6405C155.097 18.773 155.125 18.915 155.124 19.0583V23.4144C155.125 23.5577 155.097 23.6997 155.043 23.8322C154.988 23.9647 154.908 24.0851 154.807 24.1864C154.705 24.2877 154.585 24.3679 154.453 24.4223C154.32 24.4767 154.178 24.5043 154.035 24.5035H138.058Z" fill="#C1C1C1"/>
</svg>
